<?xml version="1.0" encoding="UTF-8"?>
<!DOCTYPE svg PUBLIC "-//W3C//DTD SVG 1.1//EN" "http://www.w3.org/Graphics/SVG/1.1/DTD/svg11.dtd">
<svg xmlns="http://www.w3.org/2000/svg" version="1.1" width="2307px" height="2664px" style="" xmlns:xlink="http://www.w3.org/1999/xlink">
<g><path style="" fill="#080317" d="M 1145.5,-0.5 C 1147.17,-0.5 1148.83,-0.5 1150.5,-0.5C 1534.23,219.206 1917.9,439.206 2301.5,659.5C 2302.33,684.827 2302.83,710.16 2303,735.5C 2303.85,991.667 2305.02,1247.67 2306.5,1503.5C 2306.5,1667.17 2306.5,1830.83 2306.5,1994.5C 1924.79,2218.02 1542.79,2441.02 1160.5,2663.5C 1158.5,2663.5 1156.5,2663.5 1154.5,2663.5C 771.261,2443.54 387.928,2223.54 4.5,2003.5C 3.66685,1978.84 3.16685,1954.17 3,1929.5C 2.14258,1672.67 0.975918,1416 -0.5,1159.5C -0.5,995.833 -0.5,832.167 -0.5,668.5C 381.207,444.98 763.207,221.98 1145.5,-0.5 Z"/></g>
<g><path style="" fill="#a2bc8c" d="M 1568.5,643.5 C 1565.5,641.723 1562.16,640.723 1558.5,640.5C 1556.49,639.076 1554.15,638.41 1551.5,638.5C 1549.49,637.076 1547.15,636.41 1544.5,636.5C 1541.5,634.723 1538.16,633.723 1534.5,633.5C 1531.5,631.723 1528.16,630.723 1524.5,630.5C 1522.49,629.076 1520.15,628.41 1517.5,628.5C 1516.39,628.443 1515.39,628.11 1514.5,627.5C 1512.49,626.076 1510.15,625.41 1507.5,625.5C 1497.67,622.836 1488.01,619.669 1478.5,616C 1393,564.415 1307.33,513.082 1221.5,462C 1206.62,441.069 1192.62,419.569 1179.5,397.5C 1179.78,335.829 1180.45,274.162 1181.5,212.5C 1186.35,210.925 1191.35,209.592 1196.5,208.5C 1199.15,208.59 1201.49,207.924 1203.5,206.5C 1208.12,204.801 1212.95,203.468 1218,202.5C 1222.57,204.207 1227.07,206.207 1231.5,208.5C 1235.03,211.195 1238.7,213.695 1242.5,216C 1415.74,314.535 1588.57,413.701 1761,513.5C 1765.32,529.123 1769.49,544.79 1773.5,560.5C 1773.17,561.167 1772.83,561.833 1772.5,562.5C 1717.85,590.323 1663.19,617.823 1608.5,645C 1602.42,646.896 1596.25,648.396 1590,649.5C 1582.48,648.377 1575.31,646.377 1568.5,643.5 Z"/></g>
<g><path style="" fill="#5a6555" d="M 1203.5,206.5 C 1201.49,207.924 1199.15,208.59 1196.5,208.5C 1198.51,207.076 1200.85,206.41 1203.5,206.5 Z"/></g>
<g><path style="" fill="#a2bc8c" d="M 1105.5,246.5 C 1105.28,251.1 1105.95,255.433 1107.5,259.5C 1108.28,273.412 1109.95,287.079 1112.5,300.5C 1113.24,304.119 1113.58,307.785 1113.5,311.5C 1113.44,316.731 1114.11,321.731 1115.5,326.5C 1116,333.185 1116.67,339.851 1117.5,346.5C 1118.48,353.537 1118.48,360.537 1117.5,367.5C 1102.3,397.241 1087.13,426.908 1072,456.5C 997.587,499.622 923.42,543.122 849.5,587C 835.521,590.662 821.521,593.995 807.5,597C 799.251,592.293 791.084,587.459 783,582.5C 781.196,577.233 779.696,571.9 778.5,566.5C 778.277,562.838 777.277,559.505 775.5,556.5C 773.659,547.594 771.326,538.927 768.5,530.5C 768.59,527.848 767.924,525.515 766.5,523.5C 766.634,521.708 766.301,520.042 765.5,518.5C 764.733,514.673 763.733,511.006 762.5,507.5C 761.795,504.646 760.795,501.979 759.5,499.5C 759.048,495.837 758.548,492.17 758,488.5C 757.722,487.584 757.222,486.918 756.5,486.5C 756.5,486.167 756.5,485.833 756.5,485.5C 756.59,482.848 755.924,480.515 754.5,478.5C 751.151,466.1 747.651,453.767 744,441.5C 743.333,439.167 743.333,436.833 744,434.5C 755.833,418 767.667,401.5 779.5,385C 880.426,326.399 981.093,267.399 1081.5,208C 1083.04,206.813 1084.71,206.48 1086.5,207C 1091.45,210.643 1096.79,213.476 1102.5,215.5C 1103.97,225.788 1104.97,236.121 1105.5,246.5 Z"/></g>
<g><path style="" fill="#5f6b59" d="M 1105.5,246.5 C 1107.05,250.567 1107.72,254.9 1107.5,259.5C 1105.95,255.433 1105.28,251.1 1105.5,246.5 Z"/></g>
<g><path style="" fill="#444b45" d="M 1107.5,259.5 C 1109.8,272.952 1111.47,286.618 1112.5,300.5C 1109.95,287.079 1108.28,273.412 1107.5,259.5 Z"/></g>
<g><path style="" fill="#515a4e" d="M 1181.5,212.5 C 1180.45,274.162 1179.78,335.829 1179.5,397.5C 1178.83,383.671 1178.5,369.671 1178.5,355.5C 1178.69,307.652 1179.69,259.985 1181.5,212.5 Z"/></g>
<g><path style="" fill="#4e574c" d="M 1113.5,311.5 C 1114.89,316.269 1115.56,321.269 1115.5,326.5C 1114.11,321.731 1113.44,316.731 1113.5,311.5 Z"/></g>
<g><path style="" fill="#5f6b59" d="M 1117.5,346.5 C 1119.29,352.934 1119.79,359.6 1119,366.5C 1118.62,367.056 1118.12,367.389 1117.5,367.5C 1118.48,360.537 1118.48,353.537 1117.5,346.5 Z"/></g>
<g><path style="" fill="#bd606a" d="M 687.5,537.5 C 687.92,542.529 689.254,547.195 691.5,551.5C 692.903,555.381 693.903,559.381 694.5,563.5C 694.266,571.605 696.266,578.938 700.5,585.5C 704.66,599.705 708.827,614.038 713,628.5C 713.998,632.473 714.331,636.473 714,640.5C 694.798,660.7 675.965,681.2 657.5,702C 571.037,750.399 484.703,799.066 398.5,848C 385.956,868.252 373.789,888.752 362,909.5C 361.5,1062.5 361.333,1215.5 361.5,1368.5C 361.144,1416.01 361.81,1463.34 363.5,1510.5C 363.5,1515.5 363.5,1520.5 363.5,1525.5C 363.818,1566.34 364.485,1607 365.5,1647.5C 365.667,1662.84 365.5,1678.17 365,1693.5C 351.287,1721.09 337.453,1748.59 323.5,1776C 289.879,1792.25 256.212,1808.59 222.5,1825C 209.602,1834.9 196.435,1844.4 183,1853.5C 172.452,1840.11 162.119,1826.44 152,1812.5C 151.5,1597.5 151.333,1382.5 151.5,1167.5C 151.476,1107 150.81,1046.66 149.5,986.5C 149.215,925.162 148.549,863.829 147.5,802.5C 165.281,775.113 182.947,747.613 200.5,720C 339.833,639.667 479.167,559.333 618.5,479C 636.459,480.662 654.459,482.329 672.5,484C 678.205,501.657 683.205,519.49 687.5,537.5 Z"/></g>
<g><path style="" fill="#576253" d="M 754.5,478.5 C 755.924,480.515 756.59,482.848 756.5,485.5C 755.076,483.485 754.41,481.152 754.5,478.5 Z"/></g>
<g><path style="" fill="#333638" d="M 756.5,486.5 C 757.222,486.918 757.722,487.584 758,488.5C 758.548,492.17 759.048,495.837 759.5,499.5C 757.763,495.458 756.763,491.124 756.5,486.5 Z"/></g>
<g><path style="" fill="#343839" d="M 762.5,507.5 C 763.733,511.006 764.733,514.673 765.5,518.5C 762.807,515.461 761.807,511.794 762.5,507.5 Z"/></g>
<g><path style="" fill="#414842" d="M 766.5,523.5 C 767.924,525.515 768.59,527.848 768.5,530.5C 767.076,528.485 766.41,526.152 766.5,523.5 Z"/></g>
<g><path style="" fill="#582c3c" d="M 687.5,537.5 C 689.435,541.895 690.769,546.562 691.5,551.5C 689.254,547.195 687.92,542.529 687.5,537.5 Z"/></g>
<g><path style="" fill="#7d9ebd" d="M 1108.5,555.5 C 1133.59,555.019 1158.59,555.519 1183.5,557C 1387,675.253 1590.67,793.253 1794.5,911C 1806.46,931.084 1818.29,951.251 1830,971.5C 1830.67,1209.5 1830.67,1447.5 1830,1685.5C 1818.62,1705.76 1807.12,1725.93 1795.5,1746C 1794.05,1747.56 1792.38,1748.9 1790.5,1750C 1587.34,1867.08 1384.34,1984.41 1181.5,2102C 1156.83,2102.67 1132.17,2102.67 1107.5,2102C 902.755,1983.88 698.255,1865.38 494,1746.5C 482.586,1726 470.919,1705.67 459,1685.5C 458.333,1447.83 458.333,1210.17 459,972.5C 470.667,952.167 482.333,931.833 494,911.5C 698.978,792.933 903.811,674.266 1108.5,555.5 Z"/></g>
<g><path style="" fill="#404742" d="M 775.5,556.5 C 777.277,559.505 778.277,562.838 778.5,566.5C 776.723,563.495 775.723,560.162 775.5,556.5 Z"/></g>
<g><path style="" fill="#894552" d="M 694.5,563.5 C 697.372,570.493 699.372,577.827 700.5,585.5C 696.266,578.938 694.266,571.605 694.5,563.5 Z"/></g>
<g><path style="" fill="#e9ca8a" d="M 2136.5,739.5 C 2137.51,741.544 2138.51,743.544 2139.5,745.5C 2141.67,752.684 2143.67,760.017 2145.5,767.5C 2145.41,770.152 2146.08,772.485 2147.5,774.5C 2148.11,775.391 2148.44,776.391 2148.5,777.5C 2148.41,780.152 2149.08,782.485 2150.5,784.5C 2151.66,787.273 2152.32,790.273 2152.5,793.5C 2152.95,796.865 2153.62,800.198 2154.5,803.5C 2153.62,806.802 2152.95,810.135 2152.5,813.5C 2150.35,815.617 2149.35,818.284 2149.5,821.5C 2147.19,825.085 2145.86,829.085 2145.5,833.5C 2140.4,846.62 2135.57,859.954 2131,873.5C 2130.06,876.656 2128.56,879.489 2126.5,882C 2084.5,906 2042.5,930 2000.5,954C 1983.82,958.503 1967.16,963.003 1950.5,967.5C 1945.66,948.465 1940.66,929.465 1935.5,910.5C 1935.28,906.838 1934.28,903.505 1932.5,900.5C 1932.11,896.653 1931.11,892.986 1929.5,889.5C 1929.59,886.848 1928.92,884.515 1927.5,882.5C 1927.5,882.167 1927.5,881.833 1927.5,881.5C 1927.59,878.848 1926.92,876.515 1925.5,874.5C 1925.28,870.838 1924.28,867.505 1922.5,864.5C 1922.5,863.833 1922.5,863.167 1922.5,862.5C 1922.74,860.102 1922.07,858.102 1920.5,856.5C 1838.5,807.836 1756.83,758.669 1675.5,709C 1682.33,697.013 1689.66,685.346 1697.5,674C 1720.73,661.885 1744.06,650.051 1767.5,638.5C 1769.85,638.408 1771.51,637.408 1772.5,635.5C 1798.77,622.03 1825.11,608.53 1851.5,595C 1853.17,594.333 1854.83,594.333 1856.5,595C 1883.92,603.806 1911.25,612.806 1938.5,622C 2004.36,661.43 2070.36,700.597 2136.5,739.5 Z"/></g>
<g><path style="" fill="#545e51" d="M 1507.5,625.5 C 1510.15,625.41 1512.49,626.076 1514.5,627.5C 1511.85,627.59 1509.51,626.924 1507.5,625.5 Z"/></g>
<g><path style="" fill="#545e50" d="M 1517.5,628.5 C 1520.15,628.41 1522.49,629.076 1524.5,630.5C 1521.85,630.59 1519.51,629.924 1517.5,628.5 Z"/></g>
<g><path style="" fill="#566152" d="M 1524.5,630.5 C 1528.16,630.723 1531.5,631.723 1534.5,633.5C 1530.84,633.277 1527.5,632.277 1524.5,630.5 Z"/></g>
<g><path style="" fill="#556052" d="M 1534.5,633.5 C 1538.16,633.723 1541.5,634.723 1544.5,636.5C 1540.84,636.277 1537.5,635.277 1534.5,633.5 Z"/></g>
<g><path style="" fill="#596455" d="M 1544.5,636.5 C 1547.15,636.41 1549.49,637.076 1551.5,638.5C 1548.85,638.59 1546.51,637.924 1544.5,636.5 Z"/></g>
<g><path style="" fill="#927d5e" d="M 1772.5,635.5 C 1771.51,637.408 1769.85,638.408 1767.5,638.5C 1768.66,636.75 1770.33,635.75 1772.5,635.5 Z"/></g>
<g><path style="" fill="#606c5a" d="M 1551.5,638.5 C 1554.15,638.41 1556.49,639.076 1558.5,640.5C 1555.85,640.59 1553.51,639.924 1551.5,638.5 Z"/></g>
<g><path style="" fill="#62705c" d="M 1558.5,640.5 C 1562.16,640.723 1565.5,641.723 1568.5,643.5C 1564.84,643.277 1561.5,642.277 1558.5,640.5 Z"/></g>
<g><path style="" fill="#978260" d="M 2136.5,739.5 C 2138.98,740.687 2139.98,742.687 2139.5,745.5C 2138.51,743.544 2137.51,741.544 2136.5,739.5 Z"/></g>
<g><path style="" fill="#806d54" d="M 2145.5,767.5 C 2146.92,769.515 2147.59,771.848 2147.5,774.5C 2146.08,772.485 2145.41,770.152 2145.5,767.5 Z"/></g>
<g><path style="" fill="#6b5a49" d="M 2148.5,777.5 C 2149.92,779.515 2150.59,781.848 2150.5,784.5C 2149.08,782.485 2148.41,780.152 2148.5,777.5 Z"/></g>
<g><path style="" fill="#7e6b53" d="M 2152.5,793.5 C 2156.5,800.167 2156.5,806.833 2152.5,813.5C 2152.95,810.135 2153.62,806.802 2154.5,803.5C 2153.62,800.198 2152.95,796.865 2152.5,793.5 Z"/></g>
<g><path style="" fill="#8e795b" d="M 2152.5,813.5 C 2151.87,816.397 2150.87,819.064 2149.5,821.5C 2149.35,818.284 2150.35,815.617 2152.5,813.5 Z"/></g>
<g><path style="" fill="#3c3132" d="M 2149.5,821.5 C 2149.53,826.058 2148.2,830.058 2145.5,833.5C 2145.86,829.085 2147.19,825.085 2149.5,821.5 Z"/></g>
<g><path style="" fill="#6f5e4c" d="M 1920.5,856.5 C 1922.07,858.102 1922.74,860.102 1922.5,862.5C 1920.93,860.898 1920.26,858.898 1920.5,856.5 Z"/></g>
<g><path style="" fill="#52443d" d="M 1922.5,864.5 C 1924.28,867.505 1925.28,870.838 1925.5,874.5C 1923.72,871.495 1922.72,868.162 1922.5,864.5 Z"/></g>
<g><path style="" fill="#5c4e42" d="M 1925.5,874.5 C 1926.92,876.515 1927.59,878.848 1927.5,881.5C 1926.08,879.485 1925.41,877.152 1925.5,874.5 Z"/></g>
<g><path style="" fill="#51433c" d="M 1927.5,882.5 C 1928.92,884.515 1929.59,886.848 1929.5,889.5C 1928.08,887.485 1927.41,885.152 1927.5,882.5 Z"/></g>
<g><path style="" fill="#3b1e2e" d="M 147.5,802.5 C 148.549,863.829 149.215,925.162 149.5,986.5C 149.5,994.833 149.5,1003.17 149.5,1011.5C 148.178,957.503 147.178,903.336 146.5,849C 146.5,833.33 146.833,817.83 147.5,802.5 Z"/></g>
<g><path style="" fill="#5b4c41" d="M 1932.5,900.5 C 1934.28,903.505 1935.28,906.838 1935.5,910.5C 1933.72,907.495 1932.72,904.162 1932.5,900.5 Z"/></g>
<g><path style="" fill="#e9ca8a" d="M 2156.5,991.5 C 2157.47,1006.12 2157.8,1020.78 2157.5,1035.5C 2156.66,1053.15 2156.32,1070.82 2156.5,1088.5C 2156.5,1092.17 2156.5,1095.83 2156.5,1099.5C 2155.19,1121.65 2154.52,1143.99 2154.5,1166.5C 2152.93,1168.1 2152.26,1170.1 2152.5,1172.5C 2144.83,1187.35 2137.5,1202.51 2130.5,1218C 2104.4,1224.98 2078.4,1232.15 2052.5,1239.5C 2050.1,1239.26 2048.1,1239.93 2046.5,1241.5C 2043.5,1242.17 2040.5,1242.83 2037.5,1243.5C 2035.1,1243.26 2033.1,1243.93 2031.5,1245.5C 2027.38,1246.1 2023.38,1247.1 2019.5,1248.5C 2016.77,1248.17 2014.44,1248.84 2012.5,1250.5C 2000.04,1253.53 1987.71,1257.03 1975.5,1261C 1972.2,1262 1968.87,1262.33 1965.5,1262C 1956.7,1254.2 1948.2,1246.03 1940,1237.5C 1938.58,1221.85 1937.41,1206.18 1936.5,1190.5C 1936.75,1184.92 1936.08,1179.58 1934.5,1174.5C 1933.29,1159.51 1932.46,1144.51 1932,1129.5C 1938.72,1111.06 1945.72,1092.72 1953,1074.5C 1954,1072.34 1955.5,1070.67 1957.5,1069.5C 1961.44,1067.23 1964.77,1064.23 1967.5,1060.5C 1980.3,1047.87 1993.3,1035.37 2006.5,1023C 2047.22,1003.64 2088.22,984.808 2129.5,966.5C 2138.85,974.516 2147.85,982.849 2156.5,991.5 Z"/></g>
<g><path style="" fill="#38435c" d="M 798.5,992.5 C 793.463,992.413 788.463,992.746 783.5,993.5C 786.186,992.009 789.186,991.343 792.5,991.5C 794.696,991.505 796.696,991.838 798.5,992.5 Z"/></g>
<g><path style="" fill="#080317" d="M 798.5,992.5 C 803.478,993.82 808.145,995.987 812.5,999C 915.244,1101.41 1017.41,1203.91 1119,1306.5C 1125.14,1320.21 1123.14,1332.54 1113,1343.5C 1013.64,1442.86 914.306,1542.19 815,1641.5C 811.947,1649.22 806.781,1655.05 799.5,1659C 796.685,1660.72 793.685,1661.39 790.5,1661C 759.584,1630.42 729.084,1599.59 699,1568.5C 697.199,1564.93 695.699,1561.26 694.5,1557.5C 694.178,1551.35 694.845,1545.35 696.5,1539.5C 696.709,1538.08 697.209,1536.74 698,1535.5C 754.666,1479 810.833,1422.67 866.5,1366.5C 874.21,1360.79 880.876,1354.12 886.5,1346.5C 900.347,1334.49 902.847,1320.49 894,1304.5C 828.647,1239.48 763.98,1174.48 700,1109.5C 697.292,1105.54 695.459,1101.21 694.5,1096.5C 694.21,1090.68 694.877,1085.01 696.5,1079.5C 696.709,1078.08 697.209,1076.74 698,1075.5C 724.716,1048.78 751.216,1022.28 777.5,996C 779.407,994.878 781.407,994.045 783.5,993.5C 788.463,992.746 793.463,992.413 798.5,992.5 Z"/></g>
<g><path style="" fill="#8d795b" d="M 2156.5,991.5 C 2157.12,991.611 2157.62,991.944 2158,992.5C 2158.5,1006.83 2158.67,1021.16 2158.5,1035.5C 2158.17,1035.5 2157.83,1035.5 2157.5,1035.5C 2157.8,1020.78 2157.47,1006.12 2156.5,991.5 Z"/></g>
<g><path style="" fill="#aa926a" d="M 1967.5,1060.5 C 1964.77,1064.23 1961.44,1067.23 1957.5,1069.5C 1960.23,1065.77 1963.56,1062.77 1967.5,1060.5 Z"/></g>
<g><path style="" fill="#73614d" d="M 2157.5,1035.5 C 2157.83,1035.5 2158.17,1035.5 2158.5,1035.5C 2158.27,1053.34 2157.6,1071.01 2156.5,1088.5C 2156.32,1070.82 2156.66,1053.15 2157.5,1035.5 Z"/></g>
<g><path style="" fill="#364059" d="M 696.5,1079.5 C 694.877,1085.01 694.21,1090.68 694.5,1096.5C 693.353,1092.35 693.186,1088.02 694,1083.5C 694.608,1081.93 695.442,1080.6 696.5,1079.5 Z"/></g>
<g><path style="" fill="#683443" d="M 149.5,986.5 C 150.81,1046.66 151.476,1107 151.5,1167.5C 150.292,1115.67 149.626,1063.67 149.5,1011.5C 149.5,1003.17 149.5,994.833 149.5,986.5 Z"/></g>
<g><path style="" fill="#7e6b54" d="M 2156.5,1099.5 C 2156.67,1117.17 2156.5,1134.84 2156,1152.5C 2155.83,1157.35 2155.33,1162.02 2154.5,1166.5C 2154.52,1143.99 2155.19,1121.65 2156.5,1099.5 Z"/></g>
<g><path style="" fill="#52443d" d="M 2154.5,1166.5 C 2154.74,1168.9 2154.07,1170.9 2152.5,1172.5C 2152.26,1170.1 2152.93,1168.1 2154.5,1166.5 Z"/></g>
<g><path style="" fill="#7b6952" d="M 1934.5,1174.5 C 1936.08,1179.58 1936.75,1184.92 1936.5,1190.5C 1935.19,1185.38 1934.53,1180.05 1934.5,1174.5 Z"/></g>
<g><path style="" fill="#4e403a" d="M 2052.5,1239.5 C 2050.9,1241.07 2048.9,1241.74 2046.5,1241.5C 2048.1,1239.93 2050.1,1239.26 2052.5,1239.5 Z"/></g>
<g><path style="" fill="#5c4d42" d="M 2037.5,1243.5 C 2035.9,1245.07 2033.9,1245.74 2031.5,1245.5C 2033.1,1243.93 2035.1,1243.26 2037.5,1243.5 Z"/></g>
<g><path style="" fill="#8e795c" d="M 2019.5,1248.5 C 2017.4,1249.61 2015.07,1250.28 2012.5,1250.5C 2014.44,1248.84 2016.77,1248.17 2019.5,1248.5 Z"/></g>
<g><path style="" fill="#e9ca8a" d="M 2152.5,1327.5 C 2152.32,1452.17 2152.65,1576.84 2153.5,1701.5C 2153.83,1732.57 2153.49,1763.57 2152.5,1794.5C 2144.19,1797.33 2135.86,1799.33 2127.5,1800.5C 2069.57,1732.98 2011.4,1665.65 1953,1598.5C 1949.47,1541.16 1945.97,1483.82 1942.5,1426.5C 1942.25,1416.5 1941.92,1406.5 1941.5,1396.5C 1954.43,1372.81 1967.76,1349.31 1981.5,1326C 2003.45,1320.51 2025.45,1315.34 2047.5,1310.5C 2050.15,1310.59 2052.49,1309.92 2054.5,1308.5C 2056.56,1308.48 2058.56,1308.15 2060.5,1307.5C 2063.15,1307.59 2065.49,1306.92 2067.5,1305.5C 2070.19,1305.66 2072.85,1305.5 2075.5,1305C 2076.06,1304.62 2076.39,1304.12 2076.5,1303.5C 2078.56,1303.48 2080.56,1303.15 2082.5,1302.5C 2085.15,1302.59 2087.49,1301.92 2089.5,1300.5C 2095.56,1298.27 2101.89,1297.1 2108.5,1297C 2122.79,1307.8 2137.46,1317.97 2152.5,1327.5 Z"/></g>
<g><path style="" fill="#837056" d="M 2089.5,1300.5 C 2087.49,1301.92 2085.15,1302.59 2082.5,1302.5C 2084.51,1301.08 2086.85,1300.41 2089.5,1300.5 Z"/></g>
<g><path style="" fill="#917c5d" d="M 2076.5,1303.5 C 2076.39,1304.12 2076.06,1304.62 2075.5,1305C 2072.85,1305.5 2070.19,1305.66 2067.5,1305.5C 2070.27,1304.34 2073.27,1303.68 2076.5,1303.5 Z"/></g>
<g><path style="" fill="#76644f" d="M 2067.5,1305.5 C 2065.49,1306.92 2063.15,1307.59 2060.5,1307.5C 2062.51,1306.08 2064.85,1305.41 2067.5,1305.5 Z"/></g>
<g><path style="" fill="#74624e" d="M 2054.5,1308.5 C 2052.49,1309.92 2050.15,1310.59 2047.5,1310.5C 2049.51,1309.08 2051.85,1308.41 2054.5,1308.5 Z"/></g>
<g><path style="" fill="#262a41" d="M 886.5,1346.5 C 880.876,1354.12 874.21,1360.79 866.5,1366.5C 872.833,1359.5 879.5,1352.83 886.5,1346.5 Z"/></g>
<g><path style="" fill="#463a37" d="M 1941.5,1396.5 C 1941.92,1406.5 1942.25,1416.5 1942.5,1426.5C 1940.68,1416.53 1940.34,1406.53 1941.5,1396.5 Z"/></g>
<g><path style="" fill="#994d59" d="M 361.5,1368.5 C 362.506,1415.67 363.173,1463 363.5,1510.5C 361.81,1463.34 361.144,1416.01 361.5,1368.5 Z"/></g>
<g><path style="" fill="#38435c" d="M 696.5,1539.5 C 694.845,1545.35 694.178,1551.35 694.5,1557.5C 693.352,1553.02 693.185,1548.35 694,1543.5C 694.608,1541.93 695.442,1540.6 696.5,1539.5 Z"/></g>
<g><path style="" fill="#1c1e34" d="M 1570.5,1551.5 C 1433.15,1551.17 1295.81,1551.51 1158.5,1552.5C 1158.92,1551.78 1159.58,1551.28 1160.5,1551C 1297.33,1550.17 1434,1550.33 1570.5,1551.5 Z"/></g>
<g><path style="" fill="#080418" d="M 1570.5,1551.5 C 1583.44,1552.94 1591.6,1559.94 1595,1572.5C 1595.94,1597.54 1595.61,1622.54 1594,1647.5C 1590.37,1657.08 1583.54,1663.08 1573.5,1665.5C 1435.83,1665.67 1298.17,1665.5 1160.5,1665C 1158.65,1663.87 1156.65,1663.37 1154.5,1663.5C 1146.57,1658.94 1141.57,1652.27 1139.5,1643.5C 1139.21,1618.81 1139.54,1594.14 1140.5,1569.5C 1142.77,1563.71 1146.44,1558.88 1151.5,1555C 1153.44,1553.1 1155.77,1552.26 1158.5,1552.5C 1295.81,1551.51 1433.15,1551.17 1570.5,1551.5 Z"/></g>
<g><path style="" fill="#3a455e" d="M 1140.5,1569.5 C 1139.54,1594.14 1139.21,1618.81 1139.5,1643.5C 1138.34,1620 1138.17,1596.34 1139,1572.5C 1139.23,1571.26 1139.73,1570.26 1140.5,1569.5 Z"/></g>
<g><path style="" fill="#4a2535" d="M 363.5,1525.5 C 365.22,1565.99 365.886,1606.65 365.5,1647.5C 364.485,1607 363.818,1566.34 363.5,1525.5 Z"/></g>
<g><path style="" fill="#1e2238" d="M 1154.5,1663.5 C 1156.65,1663.37 1158.65,1663.87 1160.5,1665C 1298.17,1665.5 1435.83,1665.67 1573.5,1665.5C 1435.67,1666.67 1297.67,1666.83 1159.5,1666C 1157.51,1665.63 1155.84,1664.79 1154.5,1663.5 Z"/></g>
<g><path style="" fill="#937d5e" d="M 2152.5,1327.5 C 2153.8,1452 2154.47,1576.66 2154.5,1701.5C 2154.17,1701.5 2153.83,1701.5 2153.5,1701.5C 2152.65,1576.84 2152.32,1452.17 2152.5,1327.5 Z"/></g>
<g><path style="" fill="#a2bc8c" d="M 1954.5,1722.5 C 1956.51,1723.92 1958.85,1724.59 1961.5,1724.5C 1970.62,1725.48 1978.12,1729.48 1984,1736.5C 2029.67,1787.5 2075.33,1838.5 2121,1889.5C 2121.52,1891.29 2121.19,1892.96 2120,1894.5C 2110.33,1911.17 2100.67,1927.83 2091,1944.5C 1827.17,2099 1563.33,2253.5 1299.5,2408C 1298.55,2408.48 1297.55,2408.65 1296.5,2408.5C 1294.94,2401.32 1293.27,2394.15 1291.5,2387C 1291.54,2385.03 1292.04,2383.2 1293,2381.5C 1374.33,2262.83 1455.67,2144.17 1537,2025.5C 1563.59,2004.79 1590.09,1983.95 1616.5,1963C 1689.17,1923 1761.83,1883 1834.5,1843C 1867.93,1818.53 1901.1,1793.7 1934,1768.5C 1934.5,1766.19 1934.66,1763.86 1934.5,1761.5C 1935.12,1761.39 1935.62,1761.06 1936,1760.5C 1936.5,1755.18 1936.67,1749.84 1936.5,1744.5C 1936.93,1735.8 1937.76,1727.13 1939,1718.5C 1939.41,1718.04 1939.91,1717.71 1940.5,1717.5C 1945.13,1719.59 1949.8,1721.25 1954.5,1722.5 Z"/></g>
<g><path style="" fill="#515a4f" d="M 1954.5,1722.5 C 1957.15,1722.41 1959.49,1723.08 1961.5,1724.5C 1958.85,1724.59 1956.51,1723.92 1954.5,1722.5 Z"/></g>
<g><path style="" fill="#6c7b63" d="M 1936.5,1744.5 C 1936.67,1749.84 1936.5,1755.18 1936,1760.5C 1935.62,1761.06 1935.12,1761.39 1934.5,1761.5C 1934.6,1755.63 1935.26,1749.96 1936.5,1744.5 Z"/></g>
<g><path style="" fill="#c3a977" d="M 2153.5,1701.5 C 2153.83,1701.5 2154.17,1701.5 2154.5,1701.5C 2155.16,1732.85 2154.49,1763.85 2152.5,1794.5C 2153.49,1763.57 2153.83,1732.57 2153.5,1701.5 Z"/></g>
<g><path style="" fill="#a2bc8c" d="M 620.5,1998.5 C 621.381,2047.83 622.048,2097.16 622.5,2146.5C 621.791,2147.4 620.791,2147.74 619.5,2147.5C 617.102,2147.26 615.102,2147.93 613.5,2149.5C 605.435,2151.18 597.435,2153.18 589.5,2155.5C 587.701,2155.42 586.034,2154.92 584.5,2154C 462.167,2083.83 339.833,2013.67 217.5,1943.5C 217.167,1942.83 216.833,1942.17 216.5,1941.5C 223.771,1927.79 231.437,1914.29 239.5,1901C 294.604,1872.7 349.771,1844.53 405,1816.5C 470.144,1853.32 535.311,1889.99 600.5,1926.5C 607.48,1950.42 614.146,1974.42 620.5,1998.5 Z"/></g>
<g><path style="" fill="#a2bc8c" d="M 1084.5,2207.5 C 1091.94,2209.22 1099.6,2210.22 1107.5,2210.5C 1112.96,2211.74 1118.63,2212.4 1124.5,2212.5C 1144.27,2216.25 1164.27,2219.42 1184.5,2222C 1187.37,2222.8 1190.03,2222.63 1192.5,2221.5C 1242.64,2192.6 1292.64,2163.43 1342.5,2134C 1356.29,2129.22 1370.29,2125.05 1384.5,2121.5C 1385.17,2121.83 1385.83,2122.17 1386.5,2122.5C 1314.42,2229.66 1242.59,2336.99 1171,2444.5C 1170.1,2445.7 1168.93,2446.53 1167.5,2447C 1151.24,2451.12 1135.08,2455.62 1119,2460.5C 984.649,2383.07 850.482,2305.24 716.5,2227C 713.232,2215.16 709.898,2203.33 706.5,2191.5C 706.741,2189.1 706.074,2187.1 704.5,2185.5C 704.5,2185.17 704.5,2184.83 704.5,2184.5C 704.59,2181.85 703.924,2179.51 702.5,2177.5C 702.536,2168.96 701.869,2160.63 700.5,2152.5C 700.698,2144.47 700.365,2136.47 699.5,2128.5C 698.833,2114.17 698.167,2099.83 697.5,2085.5C 697.822,2077.27 697.155,2069.27 695.5,2061.5C 695.698,2053.47 695.365,2045.47 694.5,2037.5C 694.44,2028.49 694.107,2019.49 693.5,2010.5C 699.423,2004.24 705.423,1997.91 711.5,1991.5C 712.723,1990.39 714.056,1990.22 715.5,1991C 838.199,2063.68 961.199,2135.85 1084.5,2207.5 Z"/></g>
<g><path style="" fill="#3f4541" d="M 693.5,2010.5 C 694.107,2019.49 694.44,2028.49 694.5,2037.5C 692.627,2028.54 692.293,2019.54 693.5,2010.5 Z"/></g>
<g><path style="" fill="#4d564c" d="M 620.5,1998.5 C 623.05,2047.81 623.717,2097.15 622.5,2146.5C 622.048,2097.16 621.381,2047.83 620.5,1998.5 Z"/></g>
<g><path style="" fill="#4d564b" d="M 695.5,2061.5 C 697.155,2069.27 697.822,2077.27 697.5,2085.5C 697.167,2085.5 696.833,2085.5 696.5,2085.5C 695.834,2077.52 695.501,2069.52 695.5,2061.5 Z"/></g>
<g><path style="" fill="#292b30" d="M 696.5,2085.5 C 696.833,2085.5 697.167,2085.5 697.5,2085.5C 698.167,2099.83 698.833,2114.17 699.5,2128.5C 697.492,2114.39 696.492,2100.05 696.5,2085.5 Z"/></g>
<g><path style="" fill="#434943" d="M 619.5,2147.5 C 617.898,2149.07 615.898,2149.74 613.5,2149.5C 615.102,2147.93 617.102,2147.26 619.5,2147.5 Z"/></g>
<g><path style="" fill="#3f4541" d="M 700.5,2152.5 C 701.869,2160.63 702.536,2168.96 702.5,2177.5C 700.824,2169.4 700.157,2161.06 700.5,2152.5 Z"/></g>
<g><path style="" fill="#4e574c" d="M 702.5,2177.5 C 703.924,2179.51 704.59,2181.85 704.5,2184.5C 703.076,2182.49 702.41,2180.15 702.5,2177.5 Z"/></g>
<g><path style="" fill="#515b4f" d="M 704.5,2185.5 C 706.074,2187.1 706.741,2189.1 706.5,2191.5C 704.926,2189.9 704.259,2187.9 704.5,2185.5 Z"/></g>
<g><path style="" fill="#566152" d="M 1084.5,2207.5 C 1092.4,2207.78 1100.06,2208.78 1107.5,2210.5C 1099.6,2210.22 1091.94,2209.22 1084.5,2207.5 Z"/></g>
<g><path style="" fill="#393d3c" d="M 1124.5,2212.5 C 1147.14,2215.69 1169.8,2218.69 1192.5,2221.5C 1190.03,2222.63 1187.37,2222.8 1184.5,2222C 1164.27,2219.42 1144.27,2216.25 1124.5,2212.5 Z"/></g>
</svg>